# xmcd CD database file
# Copyright (C) 1993-1998 Ti Kan
#
# Track frame offsets:
#	150
#	12757
#	26502
#	36452
#	49977
#	63477
#	75887
#	89030
#	100975
#	112655
#	130935
#	147422
#	158300
#	170665
#	182475
#	195210
#	207707
#	218310
#	229255
#	245372
#
# Disc length: 3466 seconds
#
# Revision: 1
# Processed by: cddbd v1.4b41PL1 Copyright (c) Steve Scherf et al.
# Submitted via: QuintessentialCD v1.0 (c) 1998 Paul Quinn
#
DISCID=050d8814
DTITLE=John Lee Hooker - The Very Best Of John Lee Hooker (1)
DYEAR=1900
DGENRE=
TTITLE0=Mambo Chillun
TTITLE1=Time Is Marchin'
TTITLE2=Dimples
TTITLE3=Every Night
TTITLE4=Baby Lee
TTITLE5=Crawlin' Black Spider
TTITLE6=I'm So Excited
TTITLE7=Mama, You Got A Daughter
TTITLE8=I Love You Honey
TTITLE9=House Rent Blues
TTITLE10=Trying To Find A Woman
TTITLE11=Maudie
TTITLE12=I'm In The Mood
TTITLE13=Boogie Chillun
TTITLE14=Hobo Blues
TTITLE15=Crawlin' Kingsnake
TTITLE16=Dusty Road
TTITLE17=No Shoes
TTITLE18=My First Wife Left Me
TTITLE19=Moanin' Blues
EXTD=
EXTT0=
EXTT1=
EXTT2=
EXTT3=
EXTT4=
EXTT5=
EXTT6=
EXTT7=
EXTT8=
EXTT9=
EXTT10=
EXTT11=
EXTT12=
EXTT13=
EXTT14=
EXTT15=
EXTT16=
EXTT17=
EXTT18=
EXTT19=
PLAYORDER=
